<svg xmlns="http://www.w3.org/2000/svg" viewBox="0 0 81.17 80.86"><defs><style>.cls-1{fill:none;stroke:#1f92fd;stroke-miterlimit:10;stroke-width:27px;}.cls-2{fill:#fbb03b;}</style></defs><g id="图层_2" data-name="图层 2"><g id="图层_1-2" data-name="图层 1"><path class="cls-1" d="M14.24,60.77c.61,22.07-.74-18.39-.74-18.39,0-19.12,11.06-28.88,32.39-28.88,0,0,43.78.41,6.77,0"/><path class="cls-2" d="M75.36,45.19a9.59,9.59,0,0,1-3.5.3c-.35,0-.67-.07-.94-.11a9.34,9.34,0,0,1-3-1.15c-1.19-.62-2-1.58-3.11-2.13a14,14,0,0,0-6.28-1.38q-6.49,0-10.22,4a15.43,15.43,0,0,0-4.37,10.8,15.93,15.93,0,0,0,4.37,11q3.74,4,10.22,4a16.08,16.08,0,0,0,9.18-2.48l-.19.15c3.14-2.13,1.64-6.76-2.31-6.76H61.81c-2.32,0-5.33-2.62-5.33-4.7l.08-1.21c0-2.07,2.93-4.32,5.25-4.32l14.75-.12,1,.09c.42.07.37-.26,2,1,1.43,1.08,1.5,6.72,1.59,7.66.11,1.28-.12,5.16-.23,6.78-.22,3.17-.15,2.36-.46,4.86-.76,6.28-13.2,9.09-21.94,9.09A34.15,34.15,0,0,1,47,78.77a25.76,25.76,0,0,1-9-5.44,24.27,24.27,0,0,1-5.85-8.28,24.33,24.33,0,0,1,6-28.29,27.23,27.23,0,0,1,9.15-5.4,33.08,33.08,0,0,1,11.14-1.83,31.89,31.89,0,0,1,13.78,2.83c2.49,1.18,5.19,2.65,6.49,5,.88,1.58.8,4.64-.73,6.16h0a7.2,7.2,0,0,1-2.46,1.63Z"/></g></g></svg>