<svg xmlns="http://www.w3.org/2000/svg" xmlns:xlink="http://www.w3.org/1999/xlink" width="180.564651" height="125.473717" viewBox="0 0 180.565 125.474">
	<path d="M0 -0.384003L161.472 -0.384003L161.472 112L0 112L0 -0.384003Z" stroke-opacity="0" fill-opacity="0.000000" fill="#FFFFFF" transform="matrix(1 0 0 1 6.73686 6.73686)"/>
	<path d="M55.5469 42.0469Q55.5469 47.4844 51.7031 51.4219Q47.875 55.3594 40.5156 57.0781Q44.4844 58.1719 46.5312 60.6406Q48.5781 63.0938 48.5781 66.2969Q48.5781 71.3594 45.4062 75.0781Q42.2344 78.7812 36.1562 80.7969Q30.0781 82.8125 21.5 82.8125Q18.2969 82.8125 16.3906 82.6094Q16.3125 84.4062 14.8438 85.2969Q13.375 86.2031 11.0781 86.2031Q8.76562 86.2031 7.90625 85.1719Q7.04688 84.1562 7.17188 82.1719Q7.75 73.2031 9.40625 63.3906Q11.0781 53.5625 13.625 44.4062Q14.0781 42.8125 15.4219 42.1719Q16.7656 41.5312 18.9375 41.5312Q22.8438 41.5312 22.8438 43.7031Q22.8438 44.5938 22.4688 45.75Q20.7969 50.75 19.125 59.2969Q17.4688 67.8281 16.7656 75.5781Q19.8438 75.8281 21.7656 75.8281Q30.7188 75.8281 34.9062 73.2344Q39.1094 70.6406 39.1094 66.6094Q39.1094 63.7969 36.7031 61.875Q34.2969 59.9531 28.6719 59.7656Q27.3906 59.7031 26.875 59.125Q26.375 58.5469 26.375 57.2656Q26.375 55.4219 27.1406 54.2656Q27.9062 53.1094 29.9531 53.0469Q34.5 52.9219 38.1719 51.7031Q41.8594 50.4844 43.9688 48.2812Q46.0781 46.0781 46.0781 43.125Q46.0781 39.4219 42.4219 37.2812Q38.7812 35.125 31.2344 35.125Q24.3906 35.125 17.9844 36.8906Q11.5781 38.6406 7.10938 41.3438Q5.0625 42.5469 3.64062 42.5469Q2.5 42.5469 1.89062 41.75Q1.28125 40.9531 1.28125 39.7344Q1.28125 38.1406 1.95312 36.9844Q2.625 35.8281 5.1875 34.3594Q10.5625 31.2812 17.7969 29.5625Q25.0312 27.8281 32.5781 27.8281Q44.1562 27.8281 49.8438 31.7344Q55.5469 35.6406 55.5469 42.0469ZM115.709 68.7344Q116.537 68.7344 117.022 69.5Q117.506 70.2656 117.506 71.6094Q117.506 74.1094 116.287 75.5781Q113.209 79.2812 110.069 81.2969Q106.944 83.3125 102.662 83.3125Q98.4904 83.3125 95.5842 81.0781Q92.6779 78.8438 90.0529 73.4062Q87.9435 69.0469 86.7248 66.9688Q85.506 64.8906 84.3185 64Q83.131 63.0938 81.4123 62.9062Q81.1467 64.25 79.9435 71.3594Q79.4279 74.5469 79.3029 75.25Q78.6623 79.1562 76.7404 81.2344Q74.8185 83.3125 70.9123 83.3125Q66.631 83.3125 63.3342 80.7969Q60.0373 78.2656 58.2404 73.75Q56.4435 69.2344 56.4435 63.4844Q56.4435 52.7344 60.1935 44.9219Q63.9435 37.1094 70.6935 32.9844Q77.4435 28.8594 86.2717 28.8594Q92.4123 28.8594 96.5685 30.7188Q100.74 32.5625 102.756 35.8281Q104.772 39.0938 104.772 43.1875Q104.772 46.7812 103.069 50.2031Q101.381 53.625 97.9748 56.25Q94.5842 58.875 89.7248 60.1562Q92.8029 60.9844 94.4592 62.8438Q96.131 64.7031 97.7873 68.2812Q99.5842 72.125 101.334 73.9219Q103.1 75.7031 105.412 75.7031Q107.459 75.7031 109.303 74.3281Q111.162 72.9531 113.99 69.625Q114.756 68.7344 115.709 68.7344ZM72.5685 62.8438Q70.3967 62.8438 69.5998 61.8281Q68.8029 60.7969 68.8029 59.5156Q68.8029 57.9688 69.7873 57.0781Q70.7873 56.1875 72.0685 56.1875L73.6623 56.1875Q74.6935 49.9062 75.5842 45.375Q76.4123 41.2031 80.9592 41.2031Q84.6154 41.2031 84.6154 44.4688Q84.6154 45.1719 84.5373 45.5625L82.631 56.1875Q86.0842 55.9844 88.9279 54.5156Q91.7717 53.0469 93.4592 50.4219Q95.1623 47.7969 95.1623 44.4688Q95.1623 40.4375 92.4123 38.1406Q89.6623 35.8281 84.3498 35.8281Q78.0842 35.8281 73.381 38.9375Q68.6779 42.0469 66.0529 48.1562Q63.4279 54.2656 63.4279 63.0312Q63.4279 67.125 64.256 70.0781Q65.0842 73.0156 66.3029 74.4844Q67.5217 75.9531 68.6154 75.9531Q69.4435 75.9531 69.9748 75.125Q70.5217 74.2969 70.8498 72.4375L72.5685 62.8438ZM133.56 83.3125Q127.873 83.3125 123.295 80.7656Q118.717 78.2031 116.029 73.25Q113.342 68.2812 113.342 61.375Q113.342 51.6406 116.888 44.2188Q120.451 36.7969 126.56 32.7656Q132.67 28.7344 140.092 28.7344Q145.795 28.7344 150.373 31.2969Q154.951 33.8438 157.638 38.8125Q160.326 43.7656 160.326 50.6875Q160.326 60.4062 156.763 67.8281Q153.217 75.25 147.107 79.2812Q140.998 83.3125 133.56 83.3125ZM134.201 75.7656Q139.201 75.7656 142.998 72.7031Q146.81 69.625 148.857 64.1562Q150.904 58.6875 150.904 51.7656Q150.904 44.1562 147.701 40.2188Q144.513 36.2812 139.451 36.2812Q134.529 36.2812 130.748 39.3281Q126.982 42.3594 124.857 47.8281Q122.748 53.2969 122.748 60.2812Q122.748 67.8906 125.951 71.8281Q129.154 75.7656 134.201 75.7656Z" fill="#33996C" fill-opacity="1.000000" transform="matrix(1 0 0 1 6.73686 6.73686)"/>
</svg>
